# xmcd
#
# Track frame offsets: 
#        150
#        22233
#        35756
#        51592
#        64322
#        85283
#        101685
#        117008
#        129529
#        139393
#        154354
#        170263
#        185452
#        206497
#        219522
#
# Disc length: 3654 seconds
#
# Revision: 2
# Processed by: cddbd v1.5.2PL0 Copyright (c) Steve Scherf et al.
# Submitted via: ExactAudioCopyFreeDBPlugin 1.0
#
DISCID=e70e440f
DTITLE=Various Artist - Soulsville Sings Hitsville:  Stax Sings Songs
DTITLE=of Motown Records
DYEAR=2008
DGENRE=Soul
TTITLE0=Margie Joseph - Stop! In the Name of Love (single version)
TTITLE1=David Porter - I Don't Know Why I Love You
TTITLE2=The Staple Singers - You've Got to Earn It
TTITLE3=Calvin Scott - Can I Get a Witness
TTITLE4=The Mar-Keys - Reach Out (I'll Be There)
TTITLE5=Isaac Hayes - Never Can Say Goodbye
TTITLE6=Billy Eckstine - My Cherie Amour
TTITLE7=Barbara Lewis - Oh, Be My Love
TTITLE8=Booker T. and the M.G.'s - I Hear a Symphony
TTITLE9=Mavis Staples - Chained (alternative take)
TTITLE10=John Gary Williams - Ask the Lonely
TTITLE11=The Soul Children - Signed, Sealed, Delivered
TTITLE12=Frederick Knight - Someday We'll Be Together
TTITLE13=O.B. McClinton - I Wish it Would Rain
TTITLE14=The Bar-Kays - I Heard it Through the Grapevine
EXTD=Label: Concord Music Group, Inc.\n088807230911
EXTT0=
EXTT1=
EXTT2=
EXTT3=
EXTT4=
EXTT5=
EXTT6=
EXTT7=
EXTT8=
EXTT9=
EXTT10=
EXTT11=
EXTT12=
EXTT13=
EXTT14=
PLAYORDER=
